<svg xmlns="http://www.w3.org/2000/svg" viewBox="0 0 400 400">
  <defs>
    <radialGradient id="bg2" cx="50%" cy="50%" r="50%">
      <stop offset="0%" stop-color="#e8eaf6" />
      <stop offset="100%" stop-color="#c5cae9" />
    </radialGradient>
  </defs>
  <circle cx="200" cy="200" r="190" fill="url(#bg2)"/>
  <!-- Body -->
  <path d="M 100 350 C 100 180, 300 180, 300 350 Z" fill="#b3e5fc" stroke="#29b6f6" stroke-width="4"/>
  <!-- Stripes on forehead -->
  <path d="M 180 160 L 190 200 L 200 160 L 210 200 L 220 160" fill="none" stroke="#29b6f6" stroke-width="5" stroke-linecap="round" stroke-linejoin="round"/>
  <!-- Ears -->
  <path d="M 110 200 L 90 90 L 180 160 Z" fill="#b3e5fc" stroke="#29b6f6" stroke-width="4" stroke-linejoin="round"/>
  <path d="M 120 180 L 105 110 L 165 160 Z" fill="#81d4fa"/>
  <path d="M 290 200 L 310 90 L 220 160 Z" fill="#b3e5fc" stroke="#29b6f6" stroke-width="4" stroke-linejoin="round"/>
  <path d="M 280 180 L 295 110 L 235 160 Z" fill="#81d4fa"/>
  <!-- Eyes -->
  <circle cx="150" cy="230" r="18" fill="#1a237e"/>
  <circle cx="150" cy="230" r="10" fill="#212121"/>
  <circle cx="155" cy="225" r="4" fill="#ffffff"/>
  <circle cx="250" cy="230" r="18" fill="#1a237e"/>
  <circle cx="250" cy="230" r="10" fill="#212121"/>
  <circle cx="255" cy="225" r="4" fill="#ffffff"/>
  <!-- Blushes -->
  <ellipse cx="120" cy="250" rx="15" ry="8" fill="#ff8a80" opacity="0.6"/>
  <ellipse cx="280" cy="250" rx="15" ry="8" fill="#ff8a80" opacity="0.6"/>
  <!-- Nose -->
  <path d="M 190 250 Q 200 260 210 250 Z" fill="#ff5252"/>
  <!-- Mouth -->
  <path d="M 185 265 Q 200 280 200 265 Q 200 280 215 265" fill="none" stroke="#212121" stroke-width="3" stroke-linecap="round"/>
  <!-- Whiskers -->
  <path d="M 130 250 Q 90 240 70 235 M 130 260 Q 90 260 70 260 M 130 270 Q 90 280 70 285" fill="none" stroke="#29b6f6" stroke-width="3" stroke-linecap="round"/>
  <path d="M 270 250 Q 310 240 330 235 M 270 260 Q 310 260 330 260 M 270 270 Q 310 280 330 285" fill="none" stroke="#29b6f6" stroke-width="3" stroke-linecap="round"/>
</svg>
